<svg xmlns="http://www.w3.org/2000/svg" width="600" height="360" viewBox="0 0 600 360">
  <defs>
    <linearGradient id="capital-bg" x1="0%" y1="0%" x2="100%" y2="100%">
      <stop offset="0%" stop-color="#021024"/>
      <stop offset="60%" stop-color="#04396c"/>
      <stop offset="100%" stop-color="#0fa66d"/>
    </linearGradient>
    <linearGradient id="line-gradient" x1="0%" y1="0%" x2="100%" y2="0%">
      <stop offset="0%" stop-color="#59d6ff"/>
      <stop offset="100%" stop-color="#f7f792"/>
    </linearGradient>
  </defs>
  <rect width="600" height="360" rx="32" fill="url(#capital-bg)"/>
  <g stroke="rgba(255,255,255,0.12)" stroke-width="1">
    <path d="M60 60h480v240H60z" fill="none"/>
    <g stroke-dasharray="0">
      <path d="M60 120h480"/>
      <path d="M60 180h480"/>
      <path d="M60 240h480"/>
      <path d="M60 300h480"/>
    </g>
    <g>
      <path d="M120 60v240"/>
      <path d="M240 60v240"/>
      <path d="M360 60v240"/>
      <path d="M480 60v240"/>
    </g>
  </g>
  <polyline
    fill="none"
    stroke="url(#line-gradient)"
    stroke-width="8"
    stroke-linecap="round"
    stroke-linejoin="round"
    points="70 270 150 220 220 250 300 160 370 200 440 120 520 150"/>
  <g fill="#f5f5f5" stroke="#021024" stroke-width="2">
    <circle cx="70" cy="270" r="9"/>
    <circle cx="150" cy="220" r="9"/>
    <circle cx="220" cy="250" r="9"/>
    <circle cx="300" cy="160" r="9"/>
    <circle cx="370" cy="200" r="9"/>
    <circle cx="440" cy="120" r="9"/>
    <circle cx="520" cy="150" r="9"/>
  </g>
  <g fill="#9bf6ff" font-family="Poppins, Arial" font-size="26" font-weight="600">
    <text x="80" y="105">Index</text>
    <text x="405" y="315">Time</text>
  </g>
</svg>
