<svg xmlns="http://www.w3.org/2000/svg" viewBox="0 0 360 460" role="img" aria-labelledby="title desc">
  <title id="title">Illustration of a confident professional woman</title>
  <desc id="desc">Vector portrait of a smiling professional woman with folded arms on a transparent background.</desc>
  <defs>
    <linearGradient id="skin" x1="0" y1="0" x2="0" y2="1">
      <stop offset="0%" stop-color="#f8d5c1"/>
      <stop offset="100%" stop-color="#f1b89c"/>
    </linearGradient>
    <linearGradient id="hair" x1="0" y1="0" x2="1" y2="1">
      <stop offset="0%" stop-color="#2a1b1f"/>
      <stop offset="100%" stop-color="#462d34"/>
    </linearGradient>
    <linearGradient id="cardigan" x1="0" y1="0" x2="0" y2="1">
      <stop offset="0%" stop-color="#183f8f"/>
      <stop offset="100%" stop-color="#0b2261"/>
    </linearGradient>
    <linearGradient id="shirt" x1="0" y1="0" x2="0" y2="1">
      <stop offset="0%" stop-color="#ffffff"/>
      <stop offset="100%" stop-color="#dbe3f4"/>
    </linearGradient>
  </defs>
  <g transform="translate(40 10)">
    <path d="M140 70c-30 0-54 24-54 70s16 96 54 96 54-50 54-96-24-70-54-70z" fill="url(#skin)"/>
    <path d="M140 32c-48 0-76 32-76 88 0 16 2 30 5 40l12-6c-1-6-1-12-1-18 0-40 21-68 60-68s60 28 60 68c0 6 0 12-1 18l13 6c3-10 5-24 5-40 0-56-28-88-77-88z" fill="url(#hair)"/>
    <path d="M114 108c2 14 14 24 26 24s24-10 26-24h-52z" fill="#e5a789"/>
    <g fill="#251919">
      <circle cx="116" cy="122" r="6"/>
      <circle cx="164" cy="122" r="6"/>
    </g>
    <path d="M140 160c-12 0-22-6-26-15 5 18 18 31 26 31s21-13 26-31c-4 9-14 15-26 15z" fill="#ce7b63"/>
    <path d="M110 144c6 14 18 22 30 22s24-8 30-22l-6-10c-4 10-12 16-24 16s-20-6-24-16l-6 10z" fill="#de957c"/>
    <path d="M68 210c-36 20-58 58-68 118l46 62h188l46-62c-10-60-32-98-68-118l-46 78-46-78c-20 10-36 24-52 42 12-44 34-70 60-82l-10-18z" fill="url(#cardigan)"/>
    <path d="M68 210c-8 36-10 80 6 124h46l20-62-46-78c-12 6-20 10-26 16z" fill="#142f70" opacity="0.7"/>
    <path d="M212 210c8 36 10 80-6 124h-46l-20-62 46-78c12 6 20 10 26 16z" fill="#081b50" opacity="0.7"/>
    <path d="M140 210c-18 0-32 8-44 20l44 74 44-74c-12-12-26-20-44-20z" fill="url(#shirt)"/>
    <path d="M96 292c-18 6-32 18-40 36l48 68h32l-40-104z" fill="#081b50" opacity="0.55"/>
    <path d="M184 292c18 6 32 18 40 36l-48 68h-32l40-104z" fill="#081b50" opacity="0.55"/>
    <path d="M52 274c30-8 54-2 74 18l14-24c-28-22-58-28-88-10z" fill="#0a1f55"/>
    <path d="M228 274c-30-8-54-2-74 18l-14-24c28-22 58-28 88-10z" fill="#0a1f55"/>
    <path d="M120 182c-28 8-50 26-62 56 18-20 40-30 68-30s50 10 68 30c-12-30-34-48-62-56l-6 10-6-10z" fill="#f6bfa1" opacity="0.6"/>
  </g>
</svg>
